#!OML:ASF H:\ColoradoDance\Project 1\Capture day 1\Session 8\male.ASF
:FULLY-SPECIFIED
:DEGREES
108
upperback 3.297880 -4.792680 -3.132510
rfoot -37.827801 -12.548500
lradius 17.256901
lthumb -18.389500 773.929016
rradius 24.763300
lwrist 17.544600
rhand -50.136002 -8.834950
rhumerus -387.721008 -42.412800 378.403992
lowerneck -3.762740 9.708200 12.296300
lhand -45.629700 384.778015
ltibia 58.446701
head 7.054780 6.898710 -1.177240
rwrist 352.095001
lfingers 7.125020
rtoes -11.033700
lowerback 4.306790 -3.616620 -2.669510
rfingers 7.125020
lclavicle 0.000000 -0.000000
upperneck 18.219601 12.560000 -0.642915
rfemur -30.060699 -3.525760 46.325901
thorax 0.935594 -2.370860 -1.561880
rclavicle 0.000000 -0.000000
rtibia 57.643299
lfoot -71.116203 9.925490
lhumerus -2.225670 417.718994 -274.351990
rthumb -22.719601 -37.517300
root -5.035270 17.512501 -0.893930 -39.847801 68.909897 -52.842201
ltoes 55.215900
lfemur -61.360500 -19.317499 18.580200
109
upperback 2.973830 -4.162770 -3.337810
rfoot -43.429100 -12.212500
lradius 18.503599
lthumb -14.339500 777.143982
rradius 23.939699
lwrist 21.340099
rhand -50.107300 -9.313770
rhumerus -389.434998 -41.493500 380.462006
lowerneck -3.839180 9.871860 11.447800
lhand -41.423199 387.658997
ltibia 43.643600
head 7.199260 7.009170 -0.746685
rwrist 353.946991
lfingers 7.125020
rtoes -15.984600
lowerback 3.240890 -3.172170 -1.742430
rfingers 7.125020
lclavicle -0.000000 0.000000
upperneck 18.939899 12.732200 0.211353
rfemur -25.591999 -2.058250 44.018002
thorax 1.117670 -2.046890 -2.357360
rclavicle -0.000000 0.000000
rtibia 60.540100
lfoot -81.988403 -19.990700
lhumerus 10.191300 418.520996 -266.093994
rthumb -22.691999 -37.999500
root -3.566010 17.081100 -1.070010 -33.047401 65.628799 -46.314602
ltoes 59.086300
lfemur -67.310097 -34.951199 47.261200
110
upperback 2.093950 -4.331260 -3.530120
rfoot -43.798801 -11.959500
lradius 18.951500
lthumb -17.440701 776.289978
rradius 23.666300
lwrist 19.169500
rhand -49.334000 -9.508320
rhumerus -391.779999 -37.512100 380.937012
lowerneck -3.566370 10.420100 10.280600
lhand -44.643600 387.052002
ltibia 50.651402
head 6.829020 7.326810 -0.221622
rwrist 353.678986
lfingers 7.125020
rtoes -20.086399
lowerback 3.408510 -3.251690 -2.361890
rfingers 7.125020
lclavicle 0.000000 0.000000
upperneck 18.325800 13.425700 1.279790
rfemur -17.672501 0.069036 39.294899
thorax 0.146316 -2.136940 -2.161530
rclavicle 0.000000 0.000000
rtibia 51.902302
lfoot -72.652199 3.838390
lhumerus 19.288401 419.204987 -263.048004
rthumb -21.949800 -38.283001
root -1.641860 17.317101 -1.302450 -25.809500 64.124901 -41.583000
ltoes 57.046902
lfemur -60.996300 -24.473101 28.485399
111
upperback 1.903900 -4.303130 -3.721480
rfoot -39.080200 -9.958940
lradius 18.966801
lthumb -20.021299 771.184021
rradius 23.491800
lwrist 23.373800
rhand -48.444500 -8.558430
rhumerus -394.687988 -34.706100 380.079010
lowerneck -4.107520 11.031500 11.023600
lhand -47.326698 382.195007
ltibia 57.196201
head 6.436810 7.639020 0.038645
rwrist 355.018005
lfingers 7.125020
rtoes -25.647800
lowerback 3.308470 -3.229590 -2.364390
rfingers 7.125020
lclavicle -0.000000 0.000000
upperneck 16.807699 13.918100 2.377600
rfemur -9.959850 0.904063 35.867802
thorax -0.006963 -2.119960 -2.356270
rclavicle -0.000000 0.000000
rtibia 39.018700
lfoot -66.742699 14.091100
lhumerus 31.622801 417.875000 -257.838989
rthumb -21.095501 -37.430901
root 0.353265 17.556200 -1.575220 -21.802601 62.522800 -41.945301
ltoes 52.051601
lfemur -60.105000 -15.548300 18.477699
112
upperback 1.641080 -3.550680 -4.371490
rfoot -27.412399 -5.292240
lradius 18.006901
lthumb -16.482100 765.853027
rradius 25.186701
lwrist 21.060301
rhand -53.386700 -3.174930
rhumerus -397.230011 -33.659500 380.259003
lowerneck -5.100020 11.003200 12.510400
lhand -43.647800 376.532990
ltibia 60.344398
head 6.259400 7.551550 0.197184
rwrist 353.316986
lfingers 7.125020
rtoes -27.261499
lowerback 2.937530 -2.699010 -0.485591
rfingers 7.125020
lclavicle 0.000000 0.000000
upperneck 15.692700 13.436900 3.614320
rfemur -6.944130 3.615430 34.137699
thorax -0.207708 -1.734650 -4.113170
rclavicle 0.000000 0.000000
rtibia 31.654100
lfoot -65.022301 15.963200
lhumerus 44.375301 414.924988 -252.699005
rthumb -25.836100 -31.440100
root 2.030960 17.796700 -1.836340 -20.567101 60.718700 -45.627998
ltoes 48.035400
lfemur -60.261200 -10.314700 14.860400
113
upperback 1.686180 -2.878200 -4.122890
rfoot -9.299630 0.755472
lradius 16.686100
lthumb -17.831100 765.721008
rradius 25.552099
lwrist 18.909000
rhand -52.225201 -3.463660
rhumerus -400.704010 -34.266602 380.023987
lowerneck -6.993180 10.522400 14.086900
lhand -45.049301 376.519012
ltibia 57.160999
head 6.028100 7.013200 -0.214679
rwrist 354.066986
lfingers 7.125020
rtoes -21.056200
lowerback 2.670130 -2.199850 -0.372432
rfingers 7.125020
lclavicle -0.000000 0.000000
upperneck 13.692400 12.381100 3.142090
rfemur -10.985100 4.108690 31.808300
thorax 0.041311 -1.398240 -3.954790
rclavicle -0.000000 0.000000
rtibia 30.467501
lfoot -71.441803 14.291900
lhumerus 57.306301 410.300995 -244.548996
rthumb -24.723301 -31.886101
root 3.307840 18.251900 -2.219580 -18.445200 60.109001 -49.366199
ltoes 44.511600
lfemur -60.630501 -13.622600 16.708900
114
upperback 1.371430 -3.041970 -2.981860
rfoot 6.996320 4.686320
lradius 17.092300
lthumb -22.203300 762.981995
rradius 26.372101
lwrist 25.242100
rhand -50.034000 -6.690710
rhumerus -402.562012 -33.101101 381.470001
lowerneck -7.848460 10.463900 14.674300
lhand -49.598099 374.238007
ltibia 57.179600
head 6.180970 6.911990 -0.102408
rwrist 354.812012
lfingers 7.125020
rtoes -10.808000
lowerback 1.822490 -2.314820 0.049533
rfingers 7.125020
lclavicle 0.000000 -0.000000
upperneck 13.753600 12.006100 3.704610
rfemur -12.977000 -1.057370 31.365700
thorax 0.220508 -1.493700 -3.035270
rclavicle 0.000000 -0.000000
rtibia 30.003901
lfoot -71.923401 13.829600
lhumerus 60.842300 404.204010 -246.962006
rthumb -22.621700 -35.385101
root 4.409700 18.430700 -2.527790 -19.996901 58.791000 -53.862099
ltoes 44.870800
lfemur -59.611801 -13.154700 16.451000
115
upperback 1.404540 -3.770030 -1.698880
rfoot 16.328100 0.124315
lradius 16.685900
lthumb -18.745899 766.150024
rradius 25.335199
lwrist 21.739000
rhand -49.824299 -9.053950
rhumerus -407.947998 -32.829300 384.570007
lowerneck -7.535400 10.246200 15.263900
lhand -46.000198 377.032990
ltibia 55.179798
head 5.877240 6.780910 -0.159473
rwrist 351.174988
lfingers 7.125020
rtoes -5.347590
lowerback 1.585550 -2.854150 0.643782
rfingers 7.125020
lclavicle 0.000000 0.000000
upperneck 12.957700 11.697000 4.018440
rfemur -13.800800 -0.191628 30.735300
thorax 0.395695 -1.864070 -2.049770
rclavicle 0.000000 0.000000
rtibia 29.401199
lfoot -76.313301 15.072400
lhumerus 65.656403 400.217987 -246.548996
rthumb -22.420401 -37.772701
root 5.196560 18.573900 -2.637650 -25.060101 59.456902 -61.236698
ltoes 42.911499
lfemur -59.362202 -16.186199 19.073299
116
upperback 1.540910 -4.445550 -1.261060
rfoot 18.329700 -1.996320
lradius 18.326000
lthumb -19.284300 765.934998
rradius 24.271900
lwrist 27.067699
rhand -49.601101 -9.661510
rhumerus -413.872986 -31.820900 387.217010
lowerneck -6.629570 9.762800 15.849700
lhand -46.560001 376.871002
ltibia 53.406700
head 5.141860 6.501030 -0.354996
rwrist 350.322998
lfingers 7.125020
rtoes -7.354230
lowerback 0.417032 -3.355290 1.026440
rfingers 7.125020
lclavicle 0.000000 0.000000
upperneck 11.120800 11.242200 4.143100
rfemur -15.222800 -2.883310 29.358299
thorax 1.167580 -2.195090 -1.885180
rclavicle 0.000000 0.000000
rtibia 29.508801
lfoot -79.867599 15.871000
lhumerus 65.033897 393.373993 -253.520004
rthumb -22.206200 -38.405899
root 5.791200 18.693501 -2.647420 -29.114901 61.521000 -68.028198
ltoes 43.347801
lfemur -61.319000 -19.888000 22.085100
